<svg width="40" height="40" viewBox="0 0 40 40" fill="none" xmlns="http://www.w3.org/2000/svg">
<path d="M20 1.59998C9.84741 1.59998 1.59998 9.84741 1.59998 20C1.59998 30.1525 9.84741 38.4 20 38.4C30.1525 38.4 38.4 30.1525 38.4 20C38.4 9.84741 30.1525 1.59998 20 1.59998ZM20 3.19998C29.2878 3.19998 36.8 10.7121 36.8 20C36.8 29.2878 29.2878 36.8 20 36.8C10.7121 36.8 3.19998 29.2878 3.19998 20C3.19998 10.7121 10.7121 3.19998 20 3.19998ZM12.8 9.59998C11.484 9.59998 10.4 10.684 10.4 12C10.4 13.316 11.484 14.4 12.8 14.4C14.116 14.4 15.2 13.316 15.2 12C15.2 10.684 14.116 9.59998 12.8 9.59998ZM12.8 11.2C13.2513 11.2 13.6 11.5487 13.6 12C13.6 12.4513 13.2513 12.8 12.8 12.8C12.3487 12.8 12 12.4513 12 12C12 11.5487 12.3487 11.2 12.8 11.2ZM11.2 15.2C10.9878 15.2 10.7843 15.2843 10.6343 15.4343C10.4843 15.5843 10.4 15.7878 10.4 16V28C10.4 28.2121 10.4843 28.4156 10.6343 28.5656C10.7843 28.7157 10.9878 28.8 11.2 28.8H14.4C14.6121 28.8 14.8156 28.7157 14.9656 28.5656C15.1157 28.4156 15.2 28.2121 15.2 28V16C15.2 15.7878 15.1157 15.5843 14.9656 15.4343C14.8156 15.2843 14.6121 15.2 14.4 15.2H11.2ZM17.6 15.2C17.3878 15.2 17.1843 15.2843 17.0343 15.4343C16.8843 15.5843 16.8 15.7878 16.8 16V28C16.8 28.2121 16.8843 28.4156 17.0343 28.5656C17.1843 28.7157 17.3878 28.8 17.6 28.8H20.8C21.0121 28.8 21.2156 28.7157 21.3656 28.5656C21.5157 28.4156 21.6 28.2121 21.6 28V22C21.6 20.8963 22.4963 20 23.6 20C24.7036 20 25.6 20.8963 25.6 22V24V28C25.6 28.2121 25.6843 28.4156 25.8343 28.5656C25.9843 28.7157 26.1878 28.8 26.4 28.8H29.6C29.8121 28.8 30.0156 28.7157 30.1656 28.5656C30.3157 28.4156 30.4 28.2121 30.4 28V21.2C30.4 17.8957 27.7043 15.2 24.4 15.2C23.3708 15.2 22.4478 15.5329 21.6 15.9922C21.5979 15.7814 21.5127 15.5799 21.3629 15.4315C21.2131 15.2832 21.0108 15.2 20.8 15.2H17.6ZM12 16.8H13.6V27.2H12V16.8ZM18.4 16.8H20V17.4531C20 17.61 20.0462 17.7634 20.1327 17.8943C20.2192 18.0252 20.3424 18.1277 20.4867 18.1892C20.6311 18.2506 20.7904 18.2683 20.9447 18.2399C21.099 18.2115 21.2416 18.1384 21.3547 18.0297C22.1473 17.2682 23.2133 16.8 24.4 16.8C26.8397 16.8 28.8 18.7603 28.8 21.2V27.2H27.2V24V22C27.2 20.0236 25.5763 18.4 23.6 18.4C21.6236 18.4 20 20.0236 20 22V27.2H18.4V16.8Z" fill="black"/>
</svg>
