<svg width="68" height="17" viewBox="0 0 68 17" fill="none" xmlns="http://www.w3.org/2000/svg">
<path d="M10.968 3.136H9.528V11.56C9.528 13.128 9.088 14.304 8.208 15.088C7.344 15.856 6.208 16.24 4.8 16.24C3.472 16.24 2.44 15.944 1.704 15.352C0.984 14.76 0.456 14.072 0.12 13.288L2.376 11.584C2.648 12.288 2.968 12.744 3.336 12.952C3.72 13.16 4.104 13.264 4.488 13.264C5.144 13.264 5.608 13.104 5.88 12.784C6.168 12.464 6.312 12.064 6.312 11.584V3.136H3.576V0.399999H10.968V3.136ZM28.2799 3.136H26.8879V9.544C26.8879 10.648 26.6799 11.712 26.2639 12.736C25.8479 13.76 25.1519 14.6 24.1759 15.256C23.1999 15.912 21.8799 16.24 20.2159 16.24C17.8479 16.24 16.1759 15.592 15.1999 14.296C14.2239 12.984 13.7359 11.488 13.7359 9.808V3.136H12.3439V0.399999H18.7759V3.136H16.9519V9.712C16.9519 10.784 17.2079 11.672 17.7199 12.376C18.2479 13.064 19.1359 13.408 20.3839 13.408C21.6159 13.408 22.5039 13.056 23.0479 12.352C23.6079 11.648 23.8879 10.712 23.8879 9.544V3.136H22.0639V0.399999H28.2799V3.136ZM41.5699 16H29.8579V13.264H31.5379V3.136H29.8579V0.399999H36.9379V3.136H34.7539V13.264H38.8339L39.3139 10.24L42.0499 10.48L41.5699 16ZM49.8167 16H43.2407V13.264H44.9207V3.136H43.2407V0.399999H49.8167V3.136H48.1367V13.264H49.8167V16ZM67.2302 16H61.0142V13.264H62.2622L61.6862 11.68H56.3822L55.7342 13.264H57.1982V16H51.0542V13.264H52.4702L56.9342 3.136H54.7742V0.399999H60.1262L65.7422 13.264H67.2302V16ZM60.8222 9.376L59.1902 4.984H59.0462L57.2942 9.376H60.8222Z" fill="black"/>
</svg>
